<mxfile host="app.diagrams.net" modified="2024-01-27T06:11:47.110Z" agent="Mozilla/5.0 (Windows NT 10.0; Win64; x64) AppleWebKit/537.36 (KHTML, like Gecko) Chrome/118.0.0.0 Safari/537.36 Edg/118.0.2088.76" version="21.6.9" etag="poCu79GtUiq-YH2WqFkG" type="github">
  <diagram name="第 1 页" id="aM-JxzVytrNfTNf8o5lh">
    <mxGraphModel>
      <root>
        <mxCell id="0" />
        <mxCell id="1" parent="0" />
      </root>
    </mxGraphModel>
  </diagram>
</mxfile>
